<?xml version="1.0" encoding="iso-8859-1"?>
<!-- Generator: Adobe Illustrator 19.0.0, SVG Export Plug-In . SVG Version: 6.00 Build 0)  -->
<svg version="1.1" id="Capa_1" xmlns="http://www.w3.org/2000/svg" xmlns:xlink="http://www.w3.org/1999/xlink" x="0px" y="0px"
	 viewBox="0 0 464 464" style="enable-background:new 0 0 464 464;" xml:space="preserve">
<path style="fill:#D1EEF6;" d="M136,184v-8h192v8l-32,280H168L136,184z"/>
<path style="fill:#FFDB8B;" d="M168,464h128l28.344-248H139.656L168,464z"/>
<path style="fill:#D1EEF6;" d="M136,152v8h192v-8c0-44.183-35.817-80-80-80h-32C171.817,72,136,107.817,136,152z"/>
<path style="fill:#BFE1ED;" d="M128,152h208v32H128V152z"/>
<path style="fill:#E9E4E3;" d="M208,0h48v464h-48V0z"/>
<path style="fill:#BFE1ED;" d="M208,72h48v392h-48V72z"/>
<path style="fill:#FFC261;" d="M208,216h48v248h-48V216z"/>
<g>
	<circle style="fill:#CD8E5E;" cx="188" cy="444" r="20"/>
	<circle style="fill:#CD8E5E;" cx="228" cy="444" r="20"/>
	<circle style="fill:#CD8E5E;" cx="268" cy="444" r="20"/>
	<circle style="fill:#CD8E5E;" cx="212" cy="404" r="20"/>
	<circle style="fill:#CD8E5E;" cx="252" cy="404" r="20"/>
</g>
<path style="fill:#AFD9E8;" d="M208,152h48v32h-48V152z"/>
<g>
</g>
<g>
</g>
<g>
</g>
<g>
</g>
<g>
</g>
<g>
</g>
<g>
</g>
<g>
</g>
<g>
</g>
<g>
</g>
<g>
</g>
<g>
</g>
<g>
</g>
<g>
</g>
<g>
</g>
</svg>
